<?xml version="1.0" encoding="UTF-8" standalone="no"?>
<!DOCTYPE svg PUBLIC "-//W3C//DTD SVG 1.1//EN"
 "http://www.w3.org/Graphics/SVG/1.1/DTD/svg11.dtd">
<!-- Generated by graphviz version 3.0.0 (20220226.1711)
 -->
<!-- Title: arbolAST Pages: 1 -->
<svg width="2313pt" height="620pt"
 viewBox="0.00 0.00 2313.00 620.00" xmlns="http://www.w3.org/2000/svg" xmlns:xlink="http://www.w3.org/1999/xlink">
<g id="graph0" class="graph" transform="scale(1 1) rotate(0) translate(4 616)">
<title>arbolAST</title>
<polygon fill="white" stroke="transparent" points="-4,4 -4,-616 2309,-616 2309,4 -4,4"/>
<!-- n0 -->
<g id="node1" class="node">
<title>n0</title>
<ellipse fill="none" stroke="black" cx="371" cy="-594" rx="28.7" ry="18"/>
<text text-anchor="middle" x="371" y="-590.3" font-family="Times New Roman,serif" font-size="14.00">INIT</text>
</g>
<!-- n1 -->
<g id="node2" class="node">
<title>n1</title>
<ellipse fill="none" stroke="black" cx="371" cy="-522" rx="83.39" ry="18"/>
<text text-anchor="middle" x="371" y="-518.3" font-family="Times New Roman,serif" font-size="14.00">INSTRUCCIONES</text>
</g>
<!-- n0&#45;&gt;n1 -->
<g id="edge1" class="edge">
<title>n0&#45;&gt;n1</title>
<path fill="none" stroke="black" d="M371,-575.7C371,-567.98 371,-558.71 371,-550.11"/>
<polygon fill="black" stroke="black" points="374.5,-550.1 371,-540.1 367.5,-550.1 374.5,-550.1"/>
</g>
<!-- n2 -->
<g id="node3" class="node">
<title>n2</title>
<ellipse fill="none" stroke="black" cx="210" cy="-450" rx="75.29" ry="18"/>
<text text-anchor="middle" x="210" y="-446.3" font-family="Times New Roman,serif" font-size="14.00">DECLARACION</text>
</g>
<!-- n1&#45;&gt;n2 -->
<g id="edge2" class="edge">
<title>n1&#45;&gt;n2</title>
<path fill="none" stroke="black" d="M335.67,-505.64C311.7,-495.22 279.84,-481.36 254.19,-470.21"/>
<polygon fill="black" stroke="black" points="255.26,-466.86 244.7,-466.09 252.47,-473.28 255.26,-466.86"/>
</g>
<!-- n9 -->
<g id="node10" class="node">
<title>n9</title>
<ellipse fill="none" stroke="black" cx="622" cy="-450" rx="27" ry="18"/>
<text text-anchor="middle" x="622" y="-446.3" font-family="Times New Roman,serif" font-size="14.00">IF</text>
</g>
<!-- n1&#45;&gt;n9 -->
<g id="edge9" class="edge">
<title>n1&#45;&gt;n9</title>
<path fill="none" stroke="black" d="M419.99,-507.34C469.39,-493.56 544.36,-472.65 587.72,-460.56"/>
<polygon fill="black" stroke="black" points="588.82,-463.89 597.51,-457.83 586.94,-457.14 588.82,-463.89"/>
</g>
<!-- n3 -->
<g id="node4" class="node">
<title>n3</title>
<ellipse fill="none" stroke="black" cx="27" cy="-378" rx="27" ry="18"/>
<text text-anchor="middle" x="27" y="-374.3" font-family="Times New Roman,serif" font-size="14.00">int</text>
</g>
<!-- n2&#45;&gt;n3 -->
<g id="edge3" class="edge">
<title>n2&#45;&gt;n3</title>
<path fill="none" stroke="black" d="M167.77,-434.97C138.17,-424.84 97.83,-410.46 63,-396 61.18,-395.24 59.32,-394.45 57.45,-393.62"/>
<polygon fill="black" stroke="black" points="58.72,-390.36 48.17,-389.41 55.83,-396.73 58.72,-390.36"/>
</g>
<!-- n4 -->
<g id="node5" class="node">
<title>n4</title>
<ellipse fill="none" stroke="black" cx="99" cy="-378" rx="27" ry="18"/>
<text text-anchor="middle" x="99" y="-374.3" font-family="Times New Roman,serif" font-size="14.00">x</text>
</g>
<!-- n2&#45;&gt;n4 -->
<g id="edge4" class="edge">
<title>n2&#45;&gt;n4</title>
<path fill="none" stroke="black" d="M184.53,-432.94C167.31,-422.08 144.56,-407.73 126.86,-396.57"/>
<polygon fill="black" stroke="black" points="128.44,-393.43 118.12,-391.05 124.71,-399.35 128.44,-393.43"/>
</g>
<!-- n5 -->
<g id="node6" class="node">
<title>n5</title>
<ellipse fill="none" stroke="black" cx="171" cy="-378" rx="27" ry="18"/>
<text text-anchor="middle" x="171" y="-374.3" font-family="Times New Roman,serif" font-size="14.00">=</text>
</g>
<!-- n2&#45;&gt;n5 -->
<g id="edge5" class="edge">
<title>n2&#45;&gt;n5</title>
<path fill="none" stroke="black" d="M200.56,-432.05C195.89,-423.68 190.17,-413.4 185,-404.13"/>
<polygon fill="black" stroke="black" points="188.01,-402.34 180.09,-395.31 181.89,-405.75 188.01,-402.34"/>
</g>
<!-- n6 -->
<g id="node7" class="node">
<title>n6</title>
<ellipse fill="none" stroke="black" cx="248" cy="-378" rx="32.49" ry="18"/>
<text text-anchor="middle" x="248" y="-374.3" font-family="Times New Roman,serif" font-size="14.00">nativo</text>
</g>
<!-- n2&#45;&gt;n6 -->
<g id="edge6" class="edge">
<title>n2&#45;&gt;n6</title>
<path fill="none" stroke="black" d="M219.2,-432.05C223.63,-423.89 229.05,-413.91 233.98,-404.82"/>
<polygon fill="black" stroke="black" points="237.19,-406.25 238.89,-395.79 231.04,-402.91 237.19,-406.25"/>
</g>
<!-- n8 -->
<g id="node9" class="node">
<title>n8</title>
<ellipse fill="none" stroke="black" cx="325" cy="-378" rx="27" ry="18"/>
<text text-anchor="middle" x="325" y="-374.3" font-family="Times New Roman,serif" font-size="14.00">;</text>
</g>
<!-- n2&#45;&gt;n8 -->
<g id="edge8" class="edge">
<title>n2&#45;&gt;n8</title>
<path fill="none" stroke="black" d="M236.38,-432.94C254.51,-421.91 278.53,-407.29 296.99,-396.05"/>
<polygon fill="black" stroke="black" points="298.83,-399.02 305.56,-390.84 295.19,-393.05 298.83,-399.02"/>
</g>
<!-- n7 -->
<g id="node8" class="node">
<title>n7</title>
<ellipse fill="none" stroke="black" cx="248" cy="-306" rx="27" ry="18"/>
<text text-anchor="middle" x="248" y="-302.3" font-family="Times New Roman,serif" font-size="14.00">8</text>
</g>
<!-- n6&#45;&gt;n7 -->
<g id="edge7" class="edge">
<title>n6&#45;&gt;n7</title>
<path fill="none" stroke="black" d="M248,-359.7C248,-351.98 248,-342.71 248,-334.11"/>
<polygon fill="black" stroke="black" points="251.5,-334.1 248,-324.1 244.5,-334.1 251.5,-334.1"/>
</g>
<!-- n10 -->
<g id="node11" class="node">
<title>n10</title>
<ellipse fill="none" stroke="black" cx="397" cy="-378" rx="27" ry="18"/>
<text text-anchor="middle" x="397" y="-374.3" font-family="Times New Roman,serif" font-size="14.00">if</text>
</g>
<!-- n9&#45;&gt;n10 -->
<g id="edge10" class="edge">
<title>n9&#45;&gt;n10</title>
<path fill="none" stroke="black" d="M596.81,-443.36C560.17,-434.84 490.31,-417.39 433,-396 431.15,-395.31 429.27,-394.56 427.39,-393.78"/>
<polygon fill="black" stroke="black" points="428.63,-390.5 418.07,-389.67 425.8,-396.91 428.63,-390.5"/>
</g>
<!-- n11 -->
<g id="node12" class="node">
<title>n11</title>
<ellipse fill="none" stroke="black" cx="469" cy="-378" rx="27" ry="18"/>
<text text-anchor="middle" x="469" y="-374.3" font-family="Times New Roman,serif" font-size="14.00">(</text>
</g>
<!-- n9&#45;&gt;n11 -->
<g id="edge11" class="edge">
<title>n9&#45;&gt;n11</title>
<path fill="none" stroke="black" d="M599.96,-439.14C576.4,-428.57 537.99,-411.26 505,-396 503.21,-395.17 501.38,-394.32 499.52,-393.46"/>
<polygon fill="black" stroke="black" points="500.83,-390.2 490.29,-389.12 497.86,-396.54 500.83,-390.2"/>
</g>
<!-- n12 -->
<g id="node13" class="node">
<title>n12</title>
<ellipse fill="none" stroke="black" cx="571" cy="-378" rx="56.59" ry="18"/>
<text text-anchor="middle" x="571" y="-374.3" font-family="Times New Roman,serif" font-size="14.00">RELACION</text>
</g>
<!-- n9&#45;&gt;n12 -->
<g id="edge12" class="edge">
<title>n9&#45;&gt;n12</title>
<path fill="none" stroke="black" d="M610.68,-433.46C604.42,-424.87 596.48,-413.97 589.35,-404.19"/>
<polygon fill="black" stroke="black" points="592.08,-401.98 583.36,-395.96 586.42,-406.11 592.08,-401.98"/>
</g>
<!-- n18 -->
<g id="node19" class="node">
<title>n18</title>
<ellipse fill="none" stroke="black" cx="673" cy="-378" rx="27" ry="18"/>
<text text-anchor="middle" x="673" y="-374.3" font-family="Times New Roman,serif" font-size="14.00">)</text>
</g>
<!-- n9&#45;&gt;n18 -->
<g id="edge18" class="edge">
<title>n9&#45;&gt;n18</title>
<path fill="none" stroke="black" d="M633.32,-433.46C639.92,-424.4 648.38,-412.79 655.8,-402.61"/>
<polygon fill="black" stroke="black" points="658.65,-404.64 661.71,-394.49 653,-400.51 658.65,-404.64"/>
</g>
<!-- n19 -->
<g id="node20" class="node">
<title>n19</title>
<ellipse fill="none" stroke="black" cx="745" cy="-378" rx="27" ry="18"/>
<text text-anchor="middle" x="745" y="-374.3" font-family="Times New Roman,serif" font-size="14.00">{</text>
</g>
<!-- n9&#45;&gt;n19 -->
<g id="edge19" class="edge">
<title>n9&#45;&gt;n19</title>
<path fill="none" stroke="black" d="M642.04,-437.6C662.14,-426.16 693.31,-408.42 716.09,-395.46"/>
<polygon fill="black" stroke="black" points="718.01,-398.39 724.97,-390.4 714.55,-392.3 718.01,-398.39"/>
</g>
<!-- n20 -->
<g id="node21" class="node">
<title>n20</title>
<ellipse fill="none" stroke="black" cx="837" cy="-378" rx="47.39" ry="18"/>
<text text-anchor="middle" x="837" y="-374.3" font-family="Times New Roman,serif" font-size="14.00">BLOQUE</text>
</g>
<!-- n9&#45;&gt;n20 -->
<g id="edge20" class="edge">
<title>n9&#45;&gt;n20</title>
<path fill="none" stroke="black" d="M645.83,-441.24C681.1,-429.76 747.82,-408.04 792.35,-393.54"/>
<polygon fill="black" stroke="black" points="793.63,-396.8 802.05,-390.38 791.46,-390.15 793.63,-396.8"/>
</g>
<!-- n62 -->
<g id="node63" class="node">
<title>n62</title>
<ellipse fill="none" stroke="black" cx="929" cy="-378" rx="27" ry="18"/>
<text text-anchor="middle" x="929" y="-374.3" font-family="Times New Roman,serif" font-size="14.00">}</text>
</g>
<!-- n9&#45;&gt;n62 -->
<g id="edge62" class="edge">
<title>n9&#45;&gt;n62</title>
<path fill="none" stroke="black" d="M648.71,-446.01C697.97,-440 806,-424.56 893,-396 894.92,-395.37 896.87,-394.66 898.82,-393.9"/>
<polygon fill="black" stroke="black" points="900.61,-396.94 908.42,-389.79 897.85,-390.51 900.61,-396.94"/>
</g>
<!-- n13 -->
<g id="node14" class="node">
<title>n13</title>
<ellipse fill="none" stroke="black" cx="433" cy="-306" rx="27" ry="18"/>
<text text-anchor="middle" x="433" y="-302.3" font-family="Times New Roman,serif" font-size="14.00">ID</text>
</g>
<!-- n12&#45;&gt;n13 -->
<g id="edge13" class="edge">
<title>n12&#45;&gt;n13</title>
<path fill="none" stroke="black" d="M542.07,-362.33C518.87,-350.56 486.42,-334.1 462.95,-322.19"/>
<polygon fill="black" stroke="black" points="464.31,-318.96 453.81,-317.56 461.15,-325.2 464.31,-318.96"/>
</g>
<!-- n15 -->
<g id="node16" class="node">
<title>n15</title>
<ellipse fill="none" stroke="black" cx="505" cy="-306" rx="27" ry="18"/>
<text text-anchor="middle" x="505" y="-302.3" font-family="Times New Roman,serif" font-size="14.00">&gt;</text>
</g>
<!-- n12&#45;&gt;n15 -->
<g id="edge15" class="edge">
<title>n12&#45;&gt;n15</title>
<path fill="none" stroke="black" d="M555.36,-360.41C546.49,-351 535.28,-339.12 525.69,-328.94"/>
<polygon fill="black" stroke="black" points="528.14,-326.45 518.74,-321.57 523.05,-331.25 528.14,-326.45"/>
</g>
<!-- n16 -->
<g id="node17" class="node">
<title>n16</title>
<ellipse fill="none" stroke="black" cx="582" cy="-306" rx="32.49" ry="18"/>
<text text-anchor="middle" x="582" y="-302.3" font-family="Times New Roman,serif" font-size="14.00">nativo</text>
</g>
<!-- n12&#45;&gt;n16 -->
<g id="edge16" class="edge">
<title>n12&#45;&gt;n16</title>
<path fill="none" stroke="black" d="M573.72,-359.7C574.93,-351.98 576.39,-342.71 577.74,-334.11"/>
<polygon fill="black" stroke="black" points="581.22,-334.53 579.31,-324.1 574.3,-333.44 581.22,-334.53"/>
</g>
<!-- n14 -->
<g id="node15" class="node">
<title>n14</title>
<ellipse fill="none" stroke="black" cx="433" cy="-234" rx="27" ry="18"/>
<text text-anchor="middle" x="433" y="-230.3" font-family="Times New Roman,serif" font-size="14.00">x</text>
</g>
<!-- n13&#45;&gt;n14 -->
<g id="edge14" class="edge">
<title>n13&#45;&gt;n14</title>
<path fill="none" stroke="black" d="M433,-287.7C433,-279.98 433,-270.71 433,-262.11"/>
<polygon fill="black" stroke="black" points="436.5,-262.1 433,-252.1 429.5,-262.1 436.5,-262.1"/>
</g>
<!-- n17 -->
<g id="node18" class="node">
<title>n17</title>
<ellipse fill="none" stroke="black" cx="527" cy="-234" rx="27" ry="18"/>
<text text-anchor="middle" x="527" y="-230.3" font-family="Times New Roman,serif" font-size="14.00">10</text>
</g>
<!-- n16&#45;&gt;n17 -->
<g id="edge17" class="edge">
<title>n16&#45;&gt;n17</title>
<path fill="none" stroke="black" d="M569.52,-289.12C562.39,-280.04 553.31,-268.49 545.38,-258.39"/>
<polygon fill="black" stroke="black" points="547.98,-256.04 539.05,-250.34 542.48,-260.37 547.98,-256.04"/>
</g>
<!-- n21 -->
<g id="node22" class="node">
<title>n21</title>
<ellipse fill="none" stroke="black" cx="787" cy="-306" rx="37.89" ry="18"/>
<text text-anchor="middle" x="787" y="-302.3" font-family="Times New Roman,serif" font-size="14.00">PRINT</text>
</g>
<!-- n20&#45;&gt;n21 -->
<g id="edge21" class="edge">
<title>n20&#45;&gt;n21</title>
<path fill="none" stroke="black" d="M825.15,-360.41C819.05,-351.87 811.48,-341.28 804.71,-331.79"/>
<polygon fill="black" stroke="black" points="807.42,-329.57 798.76,-323.47 801.73,-333.64 807.42,-329.57"/>
</g>
<!-- n28 -->
<g id="node29" class="node">
<title>n28</title>
<ellipse fill="none" stroke="black" cx="1077" cy="-306" rx="37.89" ry="18"/>
<text text-anchor="middle" x="1077" y="-302.3" font-family="Times New Roman,serif" font-size="14.00">PRINT</text>
</g>
<!-- n20&#45;&gt;n28 -->
<g id="edge28" class="edge">
<title>n20&#45;&gt;n28</title>
<path fill="none" stroke="black" d="M872.83,-366.04C879.53,-364.02 886.47,-361.93 893,-360 941.81,-345.56 998.05,-329.44 1035.37,-318.81"/>
<polygon fill="black" stroke="black" points="1036.72,-322.06 1045.38,-315.96 1034.8,-315.33 1036.72,-322.06"/>
</g>
<!-- n35 -->
<g id="node36" class="node">
<title>n35</title>
<ellipse fill="none" stroke="black" cx="1554" cy="-306" rx="27" ry="18"/>
<text text-anchor="middle" x="1554" y="-302.3" font-family="Times New Roman,serif" font-size="14.00">IF</text>
</g>
<!-- n20&#45;&gt;n35 -->
<g id="edge35" class="edge">
<title>n20&#45;&gt;n35</title>
<path fill="none" stroke="black" d="M871.06,-365.39C878.24,-363.3 885.81,-361.36 893,-360 1127.6,-315.52 1415.95,-308.33 1516.96,-307.2"/>
<polygon fill="black" stroke="black" points="1517,-310.7 1526.96,-307.1 1516.93,-303.7 1517,-310.7"/>
</g>
<!-- n22 -->
<g id="node23" class="node">
<title>n22</title>
<ellipse fill="none" stroke="black" cx="599" cy="-234" rx="27.1" ry="18"/>
<text text-anchor="middle" x="599" y="-230.3" font-family="Times New Roman,serif" font-size="14.00">print</text>
</g>
<!-- n21&#45;&gt;n22 -->
<g id="edge22" class="edge">
<title>n21&#45;&gt;n22</title>
<path fill="none" stroke="black" d="M756.37,-295.37C725.41,-285.4 676.39,-268.93 635,-252 633.18,-251.25 631.31,-250.46 629.44,-249.65"/>
<polygon fill="black" stroke="black" points="630.71,-246.38 620.15,-245.44 627.82,-252.76 630.71,-246.38"/>
</g>
<!-- n23 -->
<g id="node24" class="node">
<title>n23</title>
<ellipse fill="none" stroke="black" cx="671" cy="-234" rx="27" ry="18"/>
<text text-anchor="middle" x="671" y="-230.3" font-family="Times New Roman,serif" font-size="14.00">(</text>
</g>
<!-- n21&#45;&gt;n23 -->
<g id="edge23" class="edge">
<title>n21&#45;&gt;n23</title>
<path fill="none" stroke="black" d="M764.63,-291.5C746.02,-280.27 719.42,-264.22 699.32,-252.09"/>
<polygon fill="black" stroke="black" points="700.97,-249 690.6,-246.83 697.35,-254.99 700.97,-249"/>
</g>
<!-- n24 -->
<g id="node25" class="node">
<title>n24</title>
<ellipse fill="none" stroke="black" cx="748" cy="-234" rx="32.49" ry="18"/>
<text text-anchor="middle" x="748" y="-230.3" font-family="Times New Roman,serif" font-size="14.00">nativo</text>
</g>
<!-- n21&#45;&gt;n24 -->
<g id="edge24" class="edge">
<title>n21&#45;&gt;n24</title>
<path fill="none" stroke="black" d="M777.76,-288.41C773.09,-280.04 767.34,-269.71 762.13,-260.37"/>
<polygon fill="black" stroke="black" points="765.1,-258.5 757.18,-251.47 758.99,-261.91 765.1,-258.5"/>
</g>
<!-- n26 -->
<g id="node27" class="node">
<title>n26</title>
<ellipse fill="none" stroke="black" cx="825" cy="-234" rx="27" ry="18"/>
<text text-anchor="middle" x="825" y="-230.3" font-family="Times New Roman,serif" font-size="14.00">)</text>
</g>
<!-- n21&#45;&gt;n26 -->
<g id="edge26" class="edge">
<title>n21&#45;&gt;n26</title>
<path fill="none" stroke="black" d="M796.01,-288.41C800.55,-280.04 806.16,-269.71 811.23,-260.37"/>
<polygon fill="black" stroke="black" points="814.36,-261.93 816.06,-251.47 808.21,-258.59 814.36,-261.93"/>
</g>
<!-- n27 -->
<g id="node28" class="node">
<title>n27</title>
<ellipse fill="none" stroke="black" cx="897" cy="-234" rx="27" ry="18"/>
<text text-anchor="middle" x="897" y="-230.3" font-family="Times New Roman,serif" font-size="14.00">;</text>
</g>
<!-- n21&#45;&gt;n27 -->
<g id="edge27" class="edge">
<title>n21&#45;&gt;n27</title>
<path fill="none" stroke="black" d="M808.73,-291.17C826.14,-280.09 850.66,-264.49 869.44,-252.54"/>
<polygon fill="black" stroke="black" points="871.33,-255.49 877.88,-247.16 867.57,-249.58 871.33,-255.49"/>
</g>
<!-- n25 -->
<g id="node26" class="node">
<title>n25</title>
<ellipse fill="none" stroke="black" cx="748" cy="-162" rx="36.29" ry="18"/>
<text text-anchor="middle" x="748" y="-158.3" font-family="Times New Roman,serif" font-size="14.00">patatas</text>
</g>
<!-- n24&#45;&gt;n25 -->
<g id="edge25" class="edge">
<title>n24&#45;&gt;n25</title>
<path fill="none" stroke="black" d="M748,-215.7C748,-207.98 748,-198.71 748,-190.11"/>
<polygon fill="black" stroke="black" points="751.5,-190.1 748,-180.1 744.5,-190.1 751.5,-190.1"/>
</g>
<!-- n29 -->
<g id="node30" class="node">
<title>n29</title>
<ellipse fill="none" stroke="black" cx="969" cy="-234" rx="27.1" ry="18"/>
<text text-anchor="middle" x="969" y="-230.3" font-family="Times New Roman,serif" font-size="14.00">print</text>
</g>
<!-- n28&#45;&gt;n29 -->
<g id="edge29" class="edge">
<title>n28&#45;&gt;n29</title>
<path fill="none" stroke="black" d="M1055.4,-291C1038.48,-280.03 1014.81,-264.69 996.52,-252.84"/>
<polygon fill="black" stroke="black" points="998.32,-249.84 988.03,-247.33 994.52,-255.71 998.32,-249.84"/>
</g>
<!-- n30 -->
<g id="node31" class="node">
<title>n30</title>
<ellipse fill="none" stroke="black" cx="1041" cy="-234" rx="27" ry="18"/>
<text text-anchor="middle" x="1041" y="-230.3" font-family="Times New Roman,serif" font-size="14.00">(</text>
</g>
<!-- n28&#45;&gt;n30 -->
<g id="edge30" class="edge">
<title>n28&#45;&gt;n30</title>
<path fill="none" stroke="black" d="M1068.47,-288.41C1064.16,-280.04 1058.85,-269.71 1054.05,-260.37"/>
<polygon fill="black" stroke="black" points="1057.16,-258.76 1049.47,-251.47 1050.93,-261.96 1057.16,-258.76"/>
</g>
<!-- n31 -->
<g id="node32" class="node">
<title>n31</title>
<ellipse fill="none" stroke="black" cx="1113" cy="-234" rx="27" ry="18"/>
<text text-anchor="middle" x="1113" y="-230.3" font-family="Times New Roman,serif" font-size="14.00">ID</text>
</g>
<!-- n28&#45;&gt;n31 -->
<g id="edge31" class="edge">
<title>n28&#45;&gt;n31</title>
<path fill="none" stroke="black" d="M1085.53,-288.41C1089.84,-280.04 1095.15,-269.71 1099.95,-260.37"/>
<polygon fill="black" stroke="black" points="1103.07,-261.96 1104.53,-251.47 1096.84,-258.76 1103.07,-261.96"/>
</g>
<!-- n33 -->
<g id="node34" class="node">
<title>n33</title>
<ellipse fill="none" stroke="black" cx="1185" cy="-234" rx="27" ry="18"/>
<text text-anchor="middle" x="1185" y="-230.3" font-family="Times New Roman,serif" font-size="14.00">)</text>
</g>
<!-- n28&#45;&gt;n33 -->
<g id="edge33" class="edge">
<title>n28&#45;&gt;n33</title>
<path fill="none" stroke="black" d="M1098.6,-291C1115.63,-279.96 1139.49,-264.5 1157.82,-252.62"/>
<polygon fill="black" stroke="black" points="1159.84,-255.48 1166.32,-247.11 1156.03,-249.61 1159.84,-255.48"/>
</g>
<!-- n34 -->
<g id="node35" class="node">
<title>n34</title>
<ellipse fill="none" stroke="black" cx="1257" cy="-234" rx="27" ry="18"/>
<text text-anchor="middle" x="1257" y="-230.3" font-family="Times New Roman,serif" font-size="14.00">;</text>
</g>
<!-- n28&#45;&gt;n34 -->
<g id="edge34" class="edge">
<title>n28&#45;&gt;n34</title>
<path fill="none" stroke="black" d="M1106.81,-294.9C1136.14,-284.75 1182.06,-268.32 1221,-252 1222.82,-251.24 1224.68,-250.44 1226.54,-249.61"/>
<polygon fill="black" stroke="black" points="1228.17,-252.71 1235.82,-245.38 1225.27,-246.35 1228.17,-252.71"/>
</g>
<!-- n32 -->
<g id="node33" class="node">
<title>n32</title>
<ellipse fill="none" stroke="black" cx="1113" cy="-162" rx="27" ry="18"/>
<text text-anchor="middle" x="1113" y="-158.3" font-family="Times New Roman,serif" font-size="14.00">x</text>
</g>
<!-- n31&#45;&gt;n32 -->
<g id="edge32" class="edge">
<title>n31&#45;&gt;n32</title>
<path fill="none" stroke="black" d="M1113,-215.7C1113,-207.98 1113,-198.71 1113,-190.11"/>
<polygon fill="black" stroke="black" points="1116.5,-190.1 1113,-180.1 1109.5,-190.1 1116.5,-190.1"/>
</g>
<!-- n36 -->
<g id="node37" class="node">
<title>n36</title>
<ellipse fill="none" stroke="black" cx="1329" cy="-234" rx="27" ry="18"/>
<text text-anchor="middle" x="1329" y="-230.3" font-family="Times New Roman,serif" font-size="14.00">if</text>
</g>
<!-- n35&#45;&gt;n36 -->
<g id="edge36" class="edge">
<title>n35&#45;&gt;n36</title>
<path fill="none" stroke="black" d="M1528.81,-299.36C1492.17,-290.84 1422.31,-273.39 1365,-252 1363.15,-251.31 1361.27,-250.56 1359.39,-249.78"/>
<polygon fill="black" stroke="black" points="1360.63,-246.5 1350.07,-245.67 1357.8,-252.91 1360.63,-246.5"/>
</g>
<!-- n37 -->
<g id="node38" class="node">
<title>n37</title>
<ellipse fill="none" stroke="black" cx="1401" cy="-234" rx="27" ry="18"/>
<text text-anchor="middle" x="1401" y="-230.3" font-family="Times New Roman,serif" font-size="14.00">(</text>
</g>
<!-- n35&#45;&gt;n37 -->
<g id="edge37" class="edge">
<title>n35&#45;&gt;n37</title>
<path fill="none" stroke="black" d="M1531.96,-295.14C1508.4,-284.57 1469.99,-267.26 1437,-252 1435.21,-251.17 1433.38,-250.32 1431.52,-249.46"/>
<polygon fill="black" stroke="black" points="1432.83,-246.2 1422.29,-245.12 1429.86,-252.54 1432.83,-246.2"/>
</g>
<!-- n38 -->
<g id="node39" class="node">
<title>n38</title>
<ellipse fill="none" stroke="black" cx="1503" cy="-234" rx="56.59" ry="18"/>
<text text-anchor="middle" x="1503" y="-230.3" font-family="Times New Roman,serif" font-size="14.00">RELACION</text>
</g>
<!-- n35&#45;&gt;n38 -->
<g id="edge38" class="edge">
<title>n35&#45;&gt;n38</title>
<path fill="none" stroke="black" d="M1542.68,-289.46C1536.42,-280.87 1528.48,-269.97 1521.35,-260.19"/>
<polygon fill="black" stroke="black" points="1524.08,-257.98 1515.36,-251.96 1518.42,-262.11 1524.08,-257.98"/>
</g>
<!-- n44 -->
<g id="node45" class="node">
<title>n44</title>
<ellipse fill="none" stroke="black" cx="1605" cy="-234" rx="27" ry="18"/>
<text text-anchor="middle" x="1605" y="-230.3" font-family="Times New Roman,serif" font-size="14.00">)</text>
</g>
<!-- n35&#45;&gt;n44 -->
<g id="edge44" class="edge">
<title>n35&#45;&gt;n44</title>
<path fill="none" stroke="black" d="M1565.32,-289.46C1571.92,-280.4 1580.38,-268.79 1587.8,-258.61"/>
<polygon fill="black" stroke="black" points="1590.65,-260.64 1593.71,-250.49 1585,-256.51 1590.65,-260.64"/>
</g>
<!-- n45 -->
<g id="node46" class="node">
<title>n45</title>
<ellipse fill="none" stroke="black" cx="1677" cy="-234" rx="27" ry="18"/>
<text text-anchor="middle" x="1677" y="-230.3" font-family="Times New Roman,serif" font-size="14.00">{</text>
</g>
<!-- n35&#45;&gt;n45 -->
<g id="edge45" class="edge">
<title>n35&#45;&gt;n45</title>
<path fill="none" stroke="black" d="M1574.04,-293.6C1594.14,-282.16 1625.31,-264.42 1648.09,-251.46"/>
<polygon fill="black" stroke="black" points="1650.01,-254.39 1656.97,-246.4 1646.55,-248.3 1650.01,-254.39"/>
</g>
<!-- n46 -->
<g id="node47" class="node">
<title>n46</title>
<ellipse fill="none" stroke="black" cx="1769" cy="-234" rx="47.39" ry="18"/>
<text text-anchor="middle" x="1769" y="-230.3" font-family="Times New Roman,serif" font-size="14.00">BLOQUE</text>
</g>
<!-- n35&#45;&gt;n46 -->
<g id="edge46" class="edge">
<title>n35&#45;&gt;n46</title>
<path fill="none" stroke="black" d="M1577.83,-297.24C1613.1,-285.76 1679.82,-264.04 1724.35,-249.54"/>
<polygon fill="black" stroke="black" points="1725.63,-252.8 1734.05,-246.38 1723.46,-246.15 1725.63,-252.8"/>
</g>
<!-- n61 -->
<g id="node62" class="node">
<title>n61</title>
<ellipse fill="none" stroke="black" cx="1861" cy="-234" rx="27" ry="18"/>
<text text-anchor="middle" x="1861" y="-230.3" font-family="Times New Roman,serif" font-size="14.00">}</text>
</g>
<!-- n35&#45;&gt;n61 -->
<g id="edge61" class="edge">
<title>n35&#45;&gt;n61</title>
<path fill="none" stroke="black" d="M1580.71,-302.01C1629.97,-296 1738,-280.56 1825,-252 1826.92,-251.37 1828.87,-250.66 1830.82,-249.9"/>
<polygon fill="black" stroke="black" points="1832.61,-252.94 1840.42,-245.79 1829.85,-246.51 1832.61,-252.94"/>
</g>
<!-- n39 -->
<g id="node40" class="node">
<title>n39</title>
<ellipse fill="none" stroke="black" cx="1415" cy="-162" rx="27" ry="18"/>
<text text-anchor="middle" x="1415" y="-158.3" font-family="Times New Roman,serif" font-size="14.00">ID</text>
</g>
<!-- n38&#45;&gt;n39 -->
<g id="edge39" class="edge">
<title>n38&#45;&gt;n39</title>
<path fill="none" stroke="black" d="M1483.03,-217.12C1470.18,-206.89 1453.39,-193.53 1439.7,-182.65"/>
<polygon fill="black" stroke="black" points="1441.65,-179.72 1431.64,-176.24 1437.29,-185.2 1441.65,-179.72"/>
</g>
<!-- n41 -->
<g id="node42" class="node">
<title>n41</title>
<ellipse fill="none" stroke="black" cx="1487" cy="-162" rx="27" ry="18"/>
<text text-anchor="middle" x="1487" y="-158.3" font-family="Times New Roman,serif" font-size="14.00">&gt;</text>
</g>
<!-- n38&#45;&gt;n41 -->
<g id="edge41" class="edge">
<title>n38&#45;&gt;n41</title>
<path fill="none" stroke="black" d="M1499.04,-215.7C1497.28,-207.98 1495.16,-198.71 1493.2,-190.11"/>
<polygon fill="black" stroke="black" points="1496.55,-189.07 1490.91,-180.1 1489.73,-190.63 1496.55,-189.07"/>
</g>
<!-- n42 -->
<g id="node43" class="node">
<title>n42</title>
<ellipse fill="none" stroke="black" cx="1564" cy="-162" rx="32.49" ry="18"/>
<text text-anchor="middle" x="1564" y="-158.3" font-family="Times New Roman,serif" font-size="14.00">nativo</text>
</g>
<!-- n38&#45;&gt;n42 -->
<g id="edge42" class="edge">
<title>n38&#45;&gt;n42</title>
<path fill="none" stroke="black" d="M1517.46,-216.41C1525.35,-207.35 1535.25,-195.99 1543.89,-186.08"/>
<polygon fill="black" stroke="black" points="1546.55,-188.35 1550.48,-178.51 1541.27,-183.75 1546.55,-188.35"/>
</g>
<!-- n40 -->
<g id="node41" class="node">
<title>n40</title>
<ellipse fill="none" stroke="black" cx="1415" cy="-90" rx="27" ry="18"/>
<text text-anchor="middle" x="1415" y="-86.3" font-family="Times New Roman,serif" font-size="14.00">x</text>
</g>
<!-- n39&#45;&gt;n40 -->
<g id="edge40" class="edge">
<title>n39&#45;&gt;n40</title>
<path fill="none" stroke="black" d="M1415,-143.7C1415,-135.98 1415,-126.71 1415,-118.11"/>
<polygon fill="black" stroke="black" points="1418.5,-118.1 1415,-108.1 1411.5,-118.1 1418.5,-118.1"/>
</g>
<!-- n43 -->
<g id="node44" class="node">
<title>n43</title>
<ellipse fill="none" stroke="black" cx="1548" cy="-90" rx="27" ry="18"/>
<text text-anchor="middle" x="1548" y="-86.3" font-family="Times New Roman,serif" font-size="14.00">10</text>
</g>
<!-- n42&#45;&gt;n43 -->
<g id="edge43" class="edge">
<title>n42&#45;&gt;n43</title>
<path fill="none" stroke="black" d="M1560.13,-144.05C1558.35,-136.26 1556.19,-126.82 1554.19,-118.08"/>
<polygon fill="black" stroke="black" points="1557.59,-117.24 1551.95,-108.28 1550.76,-118.8 1557.59,-117.24"/>
</g>
<!-- n47 -->
<g id="node48" class="node">
<title>n47</title>
<ellipse fill="none" stroke="black" cx="1769" cy="-162" rx="37.89" ry="18"/>
<text text-anchor="middle" x="1769" y="-158.3" font-family="Times New Roman,serif" font-size="14.00">PRINT</text>
</g>
<!-- n46&#45;&gt;n47 -->
<g id="edge47" class="edge">
<title>n46&#45;&gt;n47</title>
<path fill="none" stroke="black" d="M1769,-215.7C1769,-207.98 1769,-198.71 1769,-190.11"/>
<polygon fill="black" stroke="black" points="1772.5,-190.1 1769,-180.1 1765.5,-190.1 1772.5,-190.1"/>
</g>
<!-- n54 -->
<g id="node55" class="node">
<title>n54</title>
<ellipse fill="none" stroke="black" cx="2098" cy="-162" rx="37.89" ry="18"/>
<text text-anchor="middle" x="2098" y="-158.3" font-family="Times New Roman,serif" font-size="14.00">PRINT</text>
</g>
<!-- n46&#45;&gt;n54 -->
<g id="edge54" class="edge">
<title>n46&#45;&gt;n54</title>
<path fill="none" stroke="black" d="M1804.1,-221.74C1810.99,-219.7 1818.2,-217.69 1825,-216 1904.46,-196.28 1998.43,-179.43 2052.83,-170.3"/>
<polygon fill="black" stroke="black" points="2053.55,-173.73 2062.84,-168.63 2052.4,-166.82 2053.55,-173.73"/>
</g>
<!-- n48 -->
<g id="node49" class="node">
<title>n48</title>
<ellipse fill="none" stroke="black" cx="1620" cy="-90" rx="27.1" ry="18"/>
<text text-anchor="middle" x="1620" y="-86.3" font-family="Times New Roman,serif" font-size="14.00">print</text>
</g>
<!-- n47&#45;&gt;n48 -->
<g id="edge48" class="edge">
<title>n47&#45;&gt;n48</title>
<path fill="none" stroke="black" d="M1742.96,-148.81C1720.05,-138.08 1685.8,-122.03 1656,-108 1654.41,-107.25 1652.78,-106.48 1651.13,-105.71"/>
<polygon fill="black" stroke="black" points="1652.24,-102.36 1641.7,-101.26 1649.25,-108.69 1652.24,-102.36"/>
</g>
<!-- n49 -->
<g id="node50" class="node">
<title>n49</title>
<ellipse fill="none" stroke="black" cx="1692" cy="-90" rx="27" ry="18"/>
<text text-anchor="middle" x="1692" y="-86.3" font-family="Times New Roman,serif" font-size="14.00">(</text>
</g>
<!-- n47&#45;&gt;n49 -->
<g id="edge49" class="edge">
<title>n47&#45;&gt;n49</title>
<path fill="none" stroke="black" d="M1752.29,-145.81C1741.33,-135.85 1726.87,-122.7 1714.85,-111.77"/>
<polygon fill="black" stroke="black" points="1717.12,-109.11 1707.37,-104.97 1712.41,-114.29 1717.12,-109.11"/>
</g>
<!-- n50 -->
<g id="node51" class="node">
<title>n50</title>
<ellipse fill="none" stroke="black" cx="1769" cy="-90" rx="32.49" ry="18"/>
<text text-anchor="middle" x="1769" y="-86.3" font-family="Times New Roman,serif" font-size="14.00">nativo</text>
</g>
<!-- n47&#45;&gt;n50 -->
<g id="edge50" class="edge">
<title>n47&#45;&gt;n50</title>
<path fill="none" stroke="black" d="M1769,-143.7C1769,-135.98 1769,-126.71 1769,-118.11"/>
<polygon fill="black" stroke="black" points="1772.5,-118.1 1769,-108.1 1765.5,-118.1 1772.5,-118.1"/>
</g>
<!-- n52 -->
<g id="node53" class="node">
<title>n52</title>
<ellipse fill="none" stroke="black" cx="1846" cy="-90" rx="27" ry="18"/>
<text text-anchor="middle" x="1846" y="-86.3" font-family="Times New Roman,serif" font-size="14.00">)</text>
</g>
<!-- n47&#45;&gt;n52 -->
<g id="edge52" class="edge">
<title>n47&#45;&gt;n52</title>
<path fill="none" stroke="black" d="M1785.71,-145.81C1796.67,-135.85 1811.13,-122.7 1823.15,-111.77"/>
<polygon fill="black" stroke="black" points="1825.59,-114.29 1830.63,-104.97 1820.88,-109.11 1825.59,-114.29"/>
</g>
<!-- n53 -->
<g id="node54" class="node">
<title>n53</title>
<ellipse fill="none" stroke="black" cx="1918" cy="-90" rx="27" ry="18"/>
<text text-anchor="middle" x="1918" y="-86.3" font-family="Times New Roman,serif" font-size="14.00">;</text>
</g>
<!-- n47&#45;&gt;n53 -->
<g id="edge53" class="edge">
<title>n47&#45;&gt;n53</title>
<path fill="none" stroke="black" d="M1795.04,-148.81C1817.95,-138.08 1852.2,-122.03 1882,-108 1883.78,-107.16 1885.61,-106.3 1887.46,-105.43"/>
<polygon fill="black" stroke="black" points="1889.13,-108.51 1896.68,-101.08 1886.15,-102.18 1889.13,-108.51"/>
</g>
<!-- n51 -->
<g id="node52" class="node">
<title>n51</title>
<ellipse fill="none" stroke="black" cx="1769" cy="-18" rx="36.29" ry="18"/>
<text text-anchor="middle" x="1769" y="-14.3" font-family="Times New Roman,serif" font-size="14.00">patatas</text>
</g>
<!-- n50&#45;&gt;n51 -->
<g id="edge51" class="edge">
<title>n50&#45;&gt;n51</title>
<path fill="none" stroke="black" d="M1769,-71.7C1769,-63.98 1769,-54.71 1769,-46.11"/>
<polygon fill="black" stroke="black" points="1772.5,-46.1 1769,-36.1 1765.5,-46.1 1772.5,-46.1"/>
</g>
<!-- n55 -->
<g id="node56" class="node">
<title>n55</title>
<ellipse fill="none" stroke="black" cx="1990" cy="-90" rx="27.1" ry="18"/>
<text text-anchor="middle" x="1990" y="-86.3" font-family="Times New Roman,serif" font-size="14.00">print</text>
</g>
<!-- n54&#45;&gt;n55 -->
<g id="edge55" class="edge">
<title>n54&#45;&gt;n55</title>
<path fill="none" stroke="black" d="M2076.4,-147C2059.48,-136.03 2035.81,-120.69 2017.52,-108.84"/>
<polygon fill="black" stroke="black" points="2019.32,-105.84 2009.03,-103.33 2015.52,-111.71 2019.32,-105.84"/>
</g>
<!-- n56 -->
<g id="node57" class="node">
<title>n56</title>
<ellipse fill="none" stroke="black" cx="2062" cy="-90" rx="27" ry="18"/>
<text text-anchor="middle" x="2062" y="-86.3" font-family="Times New Roman,serif" font-size="14.00">(</text>
</g>
<!-- n54&#45;&gt;n56 -->
<g id="edge56" class="edge">
<title>n54&#45;&gt;n56</title>
<path fill="none" stroke="black" d="M2089.47,-144.41C2085.16,-136.04 2079.85,-125.71 2075.05,-116.37"/>
<polygon fill="black" stroke="black" points="2078.16,-114.76 2070.47,-107.47 2071.93,-117.96 2078.16,-114.76"/>
</g>
<!-- n57 -->
<g id="node58" class="node">
<title>n57</title>
<ellipse fill="none" stroke="black" cx="2134" cy="-90" rx="27" ry="18"/>
<text text-anchor="middle" x="2134" y="-86.3" font-family="Times New Roman,serif" font-size="14.00">ID</text>
</g>
<!-- n54&#45;&gt;n57 -->
<g id="edge57" class="edge">
<title>n54&#45;&gt;n57</title>
<path fill="none" stroke="black" d="M2106.53,-144.41C2110.84,-136.04 2116.15,-125.71 2120.95,-116.37"/>
<polygon fill="black" stroke="black" points="2124.07,-117.96 2125.53,-107.47 2117.84,-114.76 2124.07,-117.96"/>
</g>
<!-- n59 -->
<g id="node60" class="node">
<title>n59</title>
<ellipse fill="none" stroke="black" cx="2206" cy="-90" rx="27" ry="18"/>
<text text-anchor="middle" x="2206" y="-86.3" font-family="Times New Roman,serif" font-size="14.00">)</text>
</g>
<!-- n54&#45;&gt;n59 -->
<g id="edge59" class="edge">
<title>n54&#45;&gt;n59</title>
<path fill="none" stroke="black" d="M2119.6,-147C2136.63,-135.96 2160.49,-120.5 2178.82,-108.62"/>
<polygon fill="black" stroke="black" points="2180.84,-111.48 2187.32,-103.11 2177.03,-105.61 2180.84,-111.48"/>
</g>
<!-- n60 -->
<g id="node61" class="node">
<title>n60</title>
<ellipse fill="none" stroke="black" cx="2278" cy="-90" rx="27" ry="18"/>
<text text-anchor="middle" x="2278" y="-86.3" font-family="Times New Roman,serif" font-size="14.00">;</text>
</g>
<!-- n54&#45;&gt;n60 -->
<g id="edge60" class="edge">
<title>n54&#45;&gt;n60</title>
<path fill="none" stroke="black" d="M2127.81,-150.9C2157.14,-140.75 2203.06,-124.32 2242,-108 2243.82,-107.24 2245.68,-106.44 2247.54,-105.61"/>
<polygon fill="black" stroke="black" points="2249.17,-108.71 2256.82,-101.38 2246.27,-102.35 2249.17,-108.71"/>
</g>
<!-- n58 -->
<g id="node59" class="node">
<title>n58</title>
<ellipse fill="none" stroke="black" cx="2134" cy="-18" rx="27" ry="18"/>
<text text-anchor="middle" x="2134" y="-14.3" font-family="Times New Roman,serif" font-size="14.00">x</text>
</g>
<!-- n57&#45;&gt;n58 -->
<g id="edge58" class="edge">
<title>n57&#45;&gt;n58</title>
<path fill="none" stroke="black" d="M2134,-71.7C2134,-63.98 2134,-54.71 2134,-46.11"/>
<polygon fill="black" stroke="black" points="2137.5,-46.1 2134,-36.1 2130.5,-46.1 2137.5,-46.1"/>
</g>
</g>
</svg>
